<?xml version="1.0"?>
<svg version="1.1" xmlns="http://www.w3.org/2000/svg" viewBox="40 30 160 40" role="img" aria-label="The University of Iowa College of Law"><path fill="#000000" d="M54.9,43.73H53.17V56.19H54.9v4.54H45.39V56.19h1.73V43.73H45.39V39.27H54.9Z"/><path fill="#000000" d="M67.68,60.73H60.79c-2.5,0-4.14-1.64-4.14-4.33V43.59a4,4,0,0,1,3.66-4.31,3.85,3.85,0,0,1,.48,0h6.89c2.5,0,4.13,1.67,4.13,4.32V56.37a4,4,0,0,1-3.62,4.35A4.34,4.34,0,0,1,67.68,60.73Zm-2-4.51V43.73h-3V56.19Z"/><path fill="#000000" d="M74.52,43.74H73V39.28h9v4.46H80.3l1.55,10.31,3.21-14.79h4.57l3.43,14.79,1.25-10.31H92.74V39.28h8.89v4.46h-1.48l-2.69,17H90.21L87.4,48.08,84.52,60.74h-7Z"/><path fill="#000000" d="M100.06,56.19h1.63l3.25-16.92h9.72l3.21,16.92h1.52v4.54h-7.26l-.68-5.22h-3.61l-.65,5.22h-7.13Zm11-4.63-1.39-8.65-1.42,8.65Z"/><path fill="#000000" d="M135.81028125,51.12171875C135.76601171875,51.73369921875,135.54009765625,52.21546875,135.132546875,52.56703125C134.72499609375,52.91859375,134.18788671875,53.094375,133.52121875,53.094375C132.79205078125,53.094375,132.218484375,52.84893359375,131.800515625,52.358046875C131.382546875,51.86716015625,131.1735625,51.19333203125,131.1735625,50.3365625C131.1735625,50.3365625,131.1735625,49.98890625,131.1735625,49.98890625C131.1735625,49.44203125,131.26991796875,48.96026171875,131.462625,48.54359375C131.65533203125,48.12692578125,131.93072265625,47.807265625,132.288796875,47.584609375C132.64687109375,47.361953125,133.06288671875,47.250625,133.53684375,47.250625C134.19309375,47.250625,134.72173828125,47.42640625,135.12278125,47.77796875C135.52382421875,48.12953125,135.75559375,48.62301953125,135.81809375,49.2584375C135.81809375,49.2584375,134.64621875,49.2584375,134.64621875,49.2584375C134.61757421875,48.89125,134.515359375,48.62497265625,134.339578125,48.459609375C134.163796875,48.29424609375,133.89621875,48.2115625,133.53684375,48.2115625C133.14621875,48.2115625,132.85390234375,48.35153515625,132.659890625,48.631484375C132.46587890625,48.91143359375,132.36626953125,49.34567578125,132.3610625,49.93421875C132.3610625,49.93421875,132.3610625,50.36390625,132.3610625,50.36390625C132.3610625,50.97848828125,132.45416015625,51.42770703125,132.640359375,51.7115625C132.82655859375,51.99541796875,133.12017578125,52.13734375,133.52121875,52.13734375C133.88319921875,52.13734375,134.15337890625,52.05466015625,134.331765625,51.889296875C134.51015234375,51.72393359375,134.61236328125,51.46807421875,134.63840625,51.12171875C134.63840625,51.12171875,135.81028125,51.12171875,135.81028125,51.12171875Z M136.3298125,50.86390625C136.3298125,50.44463671875,136.41054296875,50.0709375,136.572,49.7428125C136.73345703125,49.4146875,136.96587890625,49.16078125,137.269265625,48.98109375C137.57265234375,48.80140625,137.92486328125,48.7115625,138.32590625,48.7115625C138.89621875,48.7115625,139.36171484375,48.88604296875,139.722390625,49.235C140.08306640625,49.58395703125,140.28423828125,50.05791796875,140.32590625,50.656875C140.32590625,50.656875,140.33371875,50.9459375,140.33371875,50.9459375C140.33371875,51.594375,140.15273046875,52.11455859375,139.79075,52.506484375C139.42876953125,52.89841015625,138.94309375,53.094375,138.33371875,53.094375C137.72434375,53.094375,137.238015625,52.8990625,136.874734375,52.5084375C136.511453125,52.1178125,136.3298125,51.5865625,136.3298125,50.9146875C136.3298125,50.9146875,136.3298125,50.86390625,136.3298125,50.86390625Z M137.45871875,50.9459375C137.45871875,51.34698046875,137.53423828125,51.65362109375,137.68528125,51.865859375C137.83632421875,52.07809765625,138.05246875,52.18421875,138.33371875,52.18421875C138.60715625,52.18421875,138.82069921875,52.07940234375,138.97434375,51.869765625C139.12798828125,51.66012890625,139.2048125,51.32484375,139.2048125,50.86390625C139.2048125,50.47067578125,139.12798828125,50.16598828125,138.97434375,49.94984375C138.82069921875,49.73369921875,138.60455078125,49.625625,138.32590625,49.625625C138.04986328125,49.625625,137.83632421875,49.733046875,137.68528125,49.947890625C137.53423828125,50.162734375,137.45871875,50.49541796875,137.45871875,50.9459375Z M142.2204375,53.01625C142.2204375,53.01625,141.087625,53.01625,141.087625,53.01625C141.087625,53.01625,141.087625,47.01625,141.087625,47.01625C141.087625,47.01625,142.2204375,47.01625,142.2204375,47.01625C142.2204375,47.01625,142.2204375,53.01625,142.2204375,53.01625Z M144.34153125,53.01625C144.34153125,53.01625,143.20871875,53.01625,143.20871875,53.01625C143.20871875,53.01625,143.20871875,47.01625,143.20871875,47.01625C143.20871875,47.01625,144.34153125,47.01625,144.34153125,47.01625C144.34153125,47.01625,144.34153125,53.01625,144.34153125,53.01625Z M147.21653125,53.094375C146.59673828125,53.094375,146.09218359375,52.90426953125,145.702859375,52.5240625C145.31353515625,52.14385546875,145.118875,51.63734375,145.118875,51.00453125C145.118875,51.00453125,145.118875,50.89515625,145.118875,50.89515625C145.118875,50.47067578125,145.20090625,50.09112109375,145.36496875,49.756484375C145.52903125,49.42184765625,145.761453125,49.16403515625,146.062234375,48.983046875C146.363015625,48.80205859375,146.70611328125,48.7115625,147.09153125,48.7115625C147.66965625,48.7115625,148.124734375,48.89385546875,148.456765625,49.2584375C148.788796875,49.62301953125,148.9548125,50.13994921875,148.9548125,50.80921875C148.9548125,50.80921875,148.9548125,51.27015625,148.9548125,51.27015625C148.9548125,51.27015625,146.26340625,51.27015625,146.26340625,51.27015625C146.29986328125,51.54619921875,146.409890625,51.76755078125,146.593484375,51.93421875C146.777078125,52.10088671875,147.0095,52.18421875,147.29075,52.18421875C147.72564453125,52.18421875,148.06548828125,52.02666796875,148.31028125,51.7115625C148.31028125,51.7115625,148.86496875,52.33265625,148.86496875,52.33265625C148.69569921875,52.57223828125,148.46653125,52.75908984375,148.17746875,52.893203125C147.88840625,53.02731640625,147.56809375,53.094375,147.21653125,53.094375Z M147.087625,49.625625C146.86366796875,49.625625,146.68202734375,49.70114453125,146.542703125,49.8521875C146.40337890625,50.00323046875,146.3141875,50.219375,146.275125,50.500625C146.275125,50.500625,147.8454375,50.500625,147.8454375,50.500625C147.8454375,50.500625,147.8454375,50.41078125,147.8454375,50.41078125C147.84023046875,50.16078125,147.77251953125,49.967421875,147.6423125,49.830703125C147.51210546875,49.693984375,147.32720703125,49.625625,147.087625,49.625625Z M149.5485625,50.87171875C149.5485625,50.22328125,149.702859375,49.70114453125,150.011453125,49.3053125C150.320046875,48.90948046875,150.7360625,48.7115625,151.2595,48.7115625C151.72304296875,48.7115625,152.08371875,48.87041796875,152.34153125,49.188125C152.34153125,49.188125,152.38840625,48.7896875,152.38840625,48.7896875C152.38840625,48.7896875,153.41184375,48.7896875,153.41184375,48.7896875C153.41184375,48.7896875,153.41184375,52.875625,153.41184375,52.875625C153.41184375,53.24541796875,153.327859375,53.56703125,153.159890625,53.84046875C152.991921875,54.11390625,152.75559375,54.32223828125,152.45090625,54.46546875C152.14621875,54.60869921875,151.78944921875,54.6803125,151.38059375,54.6803125C151.07069921875,54.6803125,150.76861328125,54.61846484375,150.47434375,54.494765625C150.18007421875,54.37106640625,149.95741796875,54.2115625,149.806375,54.01625C149.806375,54.01625,150.306375,53.32875,150.306375,53.32875C150.587625,53.64385546875,150.92876953125,53.80140625,151.3298125,53.80140625C151.62929296875,53.80140625,151.86236328125,53.721328125,152.02903125,53.561171875C152.19569921875,53.401015625,152.27903125,53.17380078125,152.27903125,52.87953125C152.27903125,52.87953125,152.27903125,52.65296875,152.27903125,52.65296875C152.01861328125,52.94723828125,151.67616796875,53.094375,151.2516875,53.094375C150.743875,53.094375,150.33306640625,52.89580859375,150.019265625,52.498671875C149.70546484375,52.10153515625,149.5485625,51.57484375,149.5485625,50.91859375C149.5485625,50.91859375,149.5485625,50.87171875,149.5485625,50.87171875Z M150.67746875,50.95375C150.67746875,51.3365625,150.75429296875,51.63669140625,150.9079375,51.854140625C151.06158203125,52.07158984375,151.27251953125,52.1803125,151.54075,52.1803125C151.8845,52.1803125,152.13059375,52.05140625,152.27903125,51.79359375C152.27903125,51.79359375,152.27903125,50.01625,152.27903125,50.01625C152.12798828125,49.7584375,151.8845,49.62953125,151.5485625,49.62953125C151.27773046875,49.62953125,151.06483984375,49.74020703125,150.909890625,49.9615625C150.75494140625,50.18291796875,150.67746875,50.51364453125,150.67746875,50.95375Z M156.22434375,53.094375C155.60455078125,53.094375,155.09999609375,52.90426953125,154.710671875,52.5240625C154.32134765625,52.14385546875,154.1266875,51.63734375,154.1266875,51.00453125C154.1266875,51.00453125,154.1266875,50.89515625,154.1266875,50.89515625C154.1266875,50.47067578125,154.20871875,50.09112109375,154.37278125,49.756484375C154.53684375,49.42184765625,154.769265625,49.16403515625,155.070046875,48.983046875C155.370828125,48.80205859375,155.71392578125,48.7115625,156.09934375,48.7115625C156.67746875,48.7115625,157.132546875,48.89385546875,157.464578125,49.2584375C157.796609375,49.62301953125,157.962625,50.13994921875,157.962625,50.80921875C157.962625,50.80921875,157.962625,51.27015625,157.962625,51.27015625C157.962625,51.27015625,155.27121875,51.27015625,155.27121875,51.27015625C155.30767578125,51.54619921875,155.417703125,51.76755078125,155.601296875,51.93421875C155.784890625,52.10088671875,156.0173125,52.18421875,156.2985625,52.18421875C156.73345703125,52.18421875,157.07330078125,52.02666796875,157.31809375,51.7115625C157.31809375,51.7115625,157.87278125,52.33265625,157.87278125,52.33265625C157.70351171875,52.57223828125,157.47434375,52.75908984375,157.18528125,52.893203125C156.89621875,53.02731640625,156.57590625,53.094375,156.22434375,53.094375Z M156.0954375,49.625625C155.87148046875,49.625625,155.68983984375,49.70114453125,155.550515625,49.8521875C155.41119140625,50.00323046875,155.322,50.219375,155.2829375,50.500625C155.2829375,50.500625,156.85325,50.500625,156.85325,50.500625C156.85325,50.500625,156.85325,50.41078125,156.85325,50.41078125C156.84804296875,50.16078125,156.78033203125,49.967421875,156.650125,49.830703125C156.51991796875,49.693984375,156.33501953125,49.625625,156.0954375,49.625625Z M157.77903125,53.01625Z M160.41965625,50.86390625C160.41965625,50.44463671875,160.50038671875,50.0709375,160.66184375,49.7428125C160.82330078125,49.4146875,161.05572265625,49.16078125,161.359109375,48.98109375C161.66249609375,48.80140625,162.01470703125,48.7115625,162.41575,48.7115625C162.9860625,48.7115625,163.45155859375,48.88604296875,163.812234375,49.235C164.17291015625,49.58395703125,164.37408203125,50.05791796875,164.41575,50.656875C164.41575,50.656875,164.4235625,50.9459375,164.4235625,50.9459375C164.4235625,51.594375,164.24257421875,52.11455859375,163.88059375,52.506484375C163.51861328125,52.89841015625,163.0329375,53.094375,162.4235625,53.094375C161.8141875,53.094375,161.327859375,52.8990625,160.964578125,52.5084375C160.601296875,52.1178125,160.41965625,51.5865625,160.41965625,50.9146875C160.41965625,50.9146875,160.41965625,50.86390625,160.41965625,50.86390625Z M161.5485625,50.9459375C161.5485625,51.34698046875,161.62408203125,51.65362109375,161.775125,51.865859375C161.92616796875,52.07809765625,162.1423125,52.18421875,162.4235625,52.18421875C162.697,52.18421875,162.91054296875,52.07940234375,163.0641875,51.869765625C163.21783203125,51.66012890625,163.29465625,51.32484375,163.29465625,50.86390625C163.29465625,50.47067578125,163.21783203125,50.16598828125,163.0641875,49.94984375C162.91054296875,49.73369921875,162.69439453125,49.625625,162.41575,49.625625C162.13970703125,49.625625,161.92616796875,49.733046875,161.775125,49.947890625C161.62408203125,50.162734375,161.5485625,50.49541796875,161.5485625,50.9459375Z M165.42746875,53.01625C165.42746875,53.01625,165.42746875,49.6178125,165.42746875,49.6178125C165.42746875,49.6178125,164.7985625,49.6178125,164.7985625,49.6178125C164.7985625,49.6178125,164.7985625,48.7896875,164.7985625,48.7896875C164.7985625,48.7896875,165.42746875,48.7896875,165.42746875,48.7896875C165.42746875,48.7896875,165.42746875,48.4303125,165.42746875,48.4303125C165.42746875,47.95635546875,165.56353515625,47.588515625,165.835671875,47.326796875C166.10780859375,47.065078125,166.48866796875,46.93421875,166.97825,46.93421875C167.1345,46.93421875,167.32590625,46.96026171875,167.55246875,47.01234375C167.55246875,47.01234375,167.54075,47.88734375,167.54075,47.88734375C167.447,47.86390625,167.33241796875,47.8521875,167.197,47.8521875C166.77251953125,47.8521875,166.56028125,48.05140625,166.56028125,48.44984375C166.56028125,48.44984375,166.56028125,48.7896875,166.56028125,48.7896875C166.56028125,48.7896875,167.400125,48.7896875,167.400125,48.7896875C167.400125,48.7896875,167.400125,49.6178125,167.400125,49.6178125C167.400125,49.6178125,166.56028125,49.6178125,166.56028125,49.6178125C166.56028125,49.6178125,166.56028125,53.01625,166.56028125,53.01625C166.56028125,53.01625,165.42746875,53.01625,165.42746875,53.01625Z M167.16184375,53.01625Z M171.22434375,52.07484375C171.22434375,52.07484375,173.712625,52.07484375,173.712625,52.07484375C173.712625,52.07484375,173.712625,53.01625,173.712625,53.01625C173.712625,53.01625,170.05246875,53.01625,170.05246875,53.01625C170.05246875,53.01625,170.05246875,47.32875,170.05246875,47.32875C170.05246875,47.32875,171.22434375,47.32875,171.22434375,47.32875C171.22434375,47.32875,171.22434375,52.07484375,171.22434375,52.07484375Z M176.7595,53.01625C176.70741796875,52.9146875,176.66965625,52.78838671875,176.64621875,52.63734375C176.37278125,52.94203125,176.0173125,53.094375,175.5798125,53.094375C175.16575,53.094375,174.82265234375,52.97458203125,174.550515625,52.735C174.27837890625,52.49541796875,174.1423125,52.19333203125,174.1423125,51.82875C174.1423125,51.38083203125,174.308328125,51.03708203125,174.640359375,50.7975C174.972390625,50.55791796875,175.45220703125,50.43682421875,176.0798125,50.43421875C176.0798125,50.43421875,176.59934375,50.43421875,176.59934375,50.43421875C176.59934375,50.43421875,176.59934375,50.19203125,176.59934375,50.19203125C176.59934375,49.99671875,176.54921484375,49.84046875,176.448953125,49.72328125C176.34869140625,49.60609375,176.19048828125,49.5475,175.97434375,49.5475C175.78423828125,49.5475,175.63515234375,49.59307421875,175.527078125,49.68421875C175.41900390625,49.77536328125,175.36496875,49.90036328125,175.36496875,50.05921875C175.36496875,50.05921875,174.2360625,50.05921875,174.2360625,50.05921875C174.2360625,49.81442578125,174.31158203125,49.58786328125,174.462625,49.37953125C174.61366796875,49.17119921875,174.82720703125,49.00778515625,175.10325,48.889296875C175.37929296875,48.77080859375,175.6891875,48.7115625,176.0329375,48.7115625C176.55376953125,48.7115625,176.96718359375,48.842421875,177.273171875,49.104140625C177.57916015625,49.365859375,177.73215625,49.73369921875,177.73215625,50.20765625C177.73215625,50.20765625,177.73215625,52.0396875,177.73215625,52.0396875C177.73476171875,52.44073046875,177.79075,52.74411328125,177.900125,52.94984375C177.900125,52.94984375,177.900125,53.01625,177.900125,53.01625C177.900125,53.01625,176.7595,53.01625,176.7595,53.01625Z M175.82590625,52.23109375C175.99257421875,52.23109375,176.14621875,52.193984375,176.28684375,52.119765625C176.42746875,52.045546875,176.53163671875,51.9459375,176.59934375,51.8209375C176.59934375,51.8209375,176.59934375,51.094375,176.59934375,51.094375C176.59934375,51.094375,176.17746875,51.094375,176.17746875,51.094375C175.61236328125,51.094375,175.31158203125,51.2896875,175.275125,51.6803125C175.275125,51.6803125,175.27121875,51.74671875,175.27121875,51.74671875C175.27121875,51.88734375,175.32069921875,52.00323046875,175.41965625,52.094375C175.51861328125,52.18551953125,175.65403125,52.23109375,175.82590625,52.23109375Z M182.16575,51.48109375C182.16575,51.48109375,182.7204375,48.7896875,182.7204375,48.7896875C182.7204375,48.7896875,183.81028125,48.7896875,183.81028125,48.7896875C183.81028125,48.7896875,182.73215625,53.01625,182.73215625,53.01625C182.73215625,53.01625,181.78684375,53.01625,181.78684375,53.01625C181.78684375,53.01625,180.9860625,50.35609375,180.9860625,50.35609375C180.9860625,50.35609375,180.18528125,53.01625,180.18528125,53.01625C180.18528125,53.01625,179.243875,53.01625,179.243875,53.01625C179.243875,53.01625,178.16575,48.7896875,178.16575,48.7896875C178.16575,48.7896875,179.25559375,48.7896875,179.25559375,48.7896875C179.25559375,48.7896875,179.806375,51.4771875,179.806375,51.4771875C179.806375,51.4771875,180.5798125,48.7896875,180.5798125,48.7896875C180.5798125,48.7896875,181.39621875,48.7896875,181.39621875,48.7896875C181.39621875,48.7896875,182.16575,51.48109375,182.16575,51.48109375Z"/><rect x="124.625" y="35.267" width="0.733" height="29.48" style="fill:#000000"/></svg>
